<svg width="145" height="144" viewBox="0 0 145 144" fill="none" xmlns="http://www.w3.org/2000/svg">
<g filter="url(#filter0_d_139_1835)">
<rect x="32.6753" y="30" width="80" height="80" rx="40" fill="url(#paint0_linear_139_1835)" shape-rendering="crispEdges"/>
<path fill-rule="evenodd" clip-rule="evenodd" d="M71.762 55.0383C69.7474 55.2672 68.0772 55.9759 66.5425 57.253C64.9455 58.5818 63.8107 60.5103 63.3568 62.6669C63.2452 63.197 63.23 63.5062 63.2052 65.7499C63.1842 67.6396 63.1951 68.2859 63.2499 68.4182C63.3605 68.6853 63.5764 68.8245 63.8799 68.8245C64.0986 68.8245 64.1756 68.7919 64.336 68.6315L64.5291 68.4384L64.559 66.0535C64.5923 63.4079 64.6324 63.0227 64.9869 61.9509C65.9034 59.1793 68.172 57.164 71.0843 56.5339C71.7796 56.3835 73.1091 56.3569 73.8832 56.4778C77.3572 57.0206 80.0262 59.6418 80.6651 63.1383C80.7406 63.5511 80.7687 64.1969 80.7918 66.0535L80.8215 68.4384L81.0145 68.6315C81.3583 68.9752 81.9153 68.8659 82.1007 68.4182C82.1555 68.2859 82.1663 67.6396 82.1454 65.7499C82.1147 62.9697 82.091 62.7604 81.6628 61.4807C80.7064 58.6224 78.4478 56.3888 75.5626 55.4478C74.477 55.0937 72.8329 54.9166 71.762 55.0383ZM61.2498 69.888C60.2945 70.1382 59.5274 70.8452 59.1701 71.805C59.0473 72.1345 59.0389 72.2654 59.0183 74.1825C59.0038 75.526 59.0189 76.3421 59.0632 76.5984C59.2589 77.7322 60.1497 78.6939 61.2758 78.9872C61.7382 79.1076 62.8872 79.108 63.2917 78.9879C63.7372 78.8556 64.1413 78.5085 64.3604 78.07L64.5437 77.7033V73.9547C64.5437 69.7967 64.5649 70.0208 64.1548 69.8495C63.8316 69.7144 61.8104 69.7412 61.2498 69.888ZM81.1899 69.849C80.8145 70.0126 80.8392 69.6937 80.8067 74.7997L80.7771 79.4604L80.6401 79.8434C80.3573 80.634 79.8643 81.1816 79.1116 81.541L78.6561 81.7585L77.5352 81.7776L76.4141 81.7966L76.2812 81.5601C75.9476 80.9665 75.1023 80.3934 74.2073 80.1541C73.6496 80.0049 72.2083 80.0087 71.6441 80.1609C70.6677 80.4244 69.9116 80.9511 69.5484 81.6209C69.363 81.9629 69.3461 82.0362 69.3461 82.495C69.3461 83.1469 69.5176 83.5196 70.0407 84.004C71.2112 85.0881 73.4552 85.3235 75.0617 84.5307C75.568 84.2809 76.0062 83.9013 76.2396 83.5104L76.4158 83.2153L77.5654 83.1876C78.8485 83.1565 79.1657 83.0895 79.9525 82.6826C80.5196 82.3894 81.3494 81.5595 81.6426 80.9925C81.9 80.4949 82.0745 79.9425 82.1315 79.4457L82.1737 79.0774H82.951C83.4589 79.0774 83.8484 79.0461 84.0747 78.9872C85.2044 78.6929 86.0911 77.7356 86.2874 76.5984C86.3317 76.3421 86.3468 75.526 86.3323 74.1825C86.3116 72.2654 86.3033 72.1345 86.1805 71.805C86.0054 71.3344 85.7559 70.959 85.3866 70.6101C84.6623 69.9259 84.1127 69.7663 82.4916 69.7696C81.6991 69.7713 81.3144 69.7947 81.1899 69.849ZM63.1884 74.2717V77.362L63.0458 77.5273C62.9054 77.6902 62.8937 77.6926 62.2651 77.688C61.8237 77.6848 61.5608 77.6547 61.4124 77.5906C61.0886 77.4506 60.7115 77.0797 60.5576 76.7499C60.4219 76.4591 60.4201 76.4286 60.4201 74.4224C60.4201 72.4064 60.4213 72.387 60.5596 72.0948C60.7284 71.7384 61.0058 71.4649 61.3618 71.304C61.585 71.2031 61.7505 71.1839 62.4077 71.1828L63.1884 71.1815V74.2717ZM83.9888 71.304C84.3448 71.4649 84.6222 71.7384 84.791 72.0948C84.9293 72.387 84.9304 72.4064 84.9304 74.4224C84.9304 76.4286 84.9287 76.4591 84.793 76.7499C84.6387 77.0805 84.2608 77.4517 83.9382 77.5895C83.7956 77.6504 83.4617 77.6906 82.9429 77.7093L82.1622 77.7375V74.4595V71.1815L82.9429 71.1828C83.6001 71.1839 83.7656 71.2031 83.9888 71.304ZM73.6384 81.4603C74.4647 81.6184 75.1501 82.0837 75.1501 82.4865C75.1501 83.1322 73.9735 83.6679 72.7102 83.5974C71.7423 83.5434 71.0154 83.214 70.7723 82.7194C70.6765 82.5244 70.6747 82.4845 70.753 82.297C70.9564 81.8103 71.9045 81.4047 72.8911 81.3824C73.0584 81.3786 73.3946 81.4137 73.6384 81.4603Z" fill="white"/>
</g>
<defs>
<filter id="filter0_d_139_1835" x="0.675293" y="0" width="144" height="144" filterUnits="userSpaceOnUse" color-interpolation-filters="sRGB">
<feFlood flood-opacity="0" result="BackgroundImageFix"/>
<feColorMatrix in="SourceAlpha" type="matrix" values="0 0 0 0 0 0 0 0 0 0 0 0 0 0 0 0 0 0 127 0" result="hardAlpha"/>
<feOffset dy="2"/>
<feGaussianBlur stdDeviation="16"/>
<feComposite in2="hardAlpha" operator="out"/>
<feColorMatrix type="matrix" values="0 0 0 0 0 0 0 0 0 0.356863 0 0 0 0 0.866667 0 0 0 0.13 0"/>
<feBlend mode="normal" in2="BackgroundImageFix" result="effect1_dropShadow_139_1835"/>
<feBlend mode="normal" in="SourceGraphic" in2="effect1_dropShadow_139_1835" result="shape"/>
</filter>
<linearGradient id="paint0_linear_139_1835" x1="112.675" y1="30" x2="24.6753" y2="117.2" gradientUnits="userSpaceOnUse">
<stop stop-color="#005BDD"/>
<stop offset="1" stop-color="#16B4B7"/>
</linearGradient>
</defs>
</svg>
