<svg width="331" height="1117" viewBox="0 0 331 1117" fill="none" xmlns="http://www.w3.org/2000/svg">
<g clip-path="url(#clip0_16_180)">
<rect width="331" height="1117" fill="#005BDD"/>
<path d="M155.83 153.582C156.564 152.142 157.577 151.189 159.118 150.485C160.025 150.071 160.912 150.005 165.651 150C171.906 149.994 172.657 150.137 174.4 151.674C176.494 153.519 176.566 153.854 176.573 161.747C176.576 165.869 176.46 169.194 176.283 170.028C175.685 172.854 174.124 174.957 171.908 175.922C171.248 176.21 169.579 176.422 166.735 176.579C160.971 176.898 160.196 177.19 159.145 179.44C158.635 180.532 158.587 181.15 158.517 187.459C158.445 193.974 158.467 194.335 158.982 195.164C159.863 196.583 160.748 196.792 165.87 196.791C170.868 196.791 171.678 196.596 172.753 195.13C173.24 194.465 173.305 193.948 173.379 190.126L173.462 185.862L171.593 185.542C167.815 184.893 165.576 183.118 164.644 180.031C164.472 179.462 164.527 179.44 166.099 179.44C167.673 179.44 167.764 179.477 168.61 180.467C170.036 182.135 171.065 182.363 177.891 182.521C184.488 182.673 185.491 182.53 186.7 181.268L187.475 180.458L187.556 175.278C187.634 170.218 187.622 170.075 187.023 169.186C186.111 167.831 185.468 167.617 182.29 167.613L179.467 167.609V165.874V164.139L182.815 164.239C186.543 164.351 187.533 164.683 189.087 166.337C190.738 168.095 190.867 168.603 190.974 173.755C191.028 176.34 190.995 179.078 190.9 179.839C190.655 181.795 189.38 183.818 187.76 184.82C186.47 185.618 186.466 185.618 181.589 185.75L176.71 185.881V190.35C176.71 194.724 176.694 194.852 175.967 196.334C175.194 197.911 174.185 198.868 172.591 199.535C171.23 200.104 160.559 200.172 159.242 199.62C157.925 199.068 156.717 197.966 155.896 196.567L155.179 195.346V188.116C155.179 181.371 155.218 180.761 155.764 179.023C156.501 176.677 157.891 175.02 159.83 174.177C161.002 173.667 161.873 173.545 165.419 173.391C172.819 173.07 173.156 172.644 173.363 163.348C173.52 156.356 173.407 155.442 172.249 154.282L171.38 153.412H165.967H160.554L159.573 154.312L158.592 155.211L158.51 159.686L158.427 164.161L159.429 164.329C163.384 164.993 165.306 166.115 166.496 168.455C167.466 170.363 167.397 170.501 165.476 170.501C163.932 170.501 163.797 170.452 163.374 169.735C163.125 169.314 162.361 168.693 161.676 168.355C160.48 167.765 160.149 167.737 153.395 167.656L146.359 167.571L145.321 168.611L144.282 169.651V174.821C144.282 180.778 144.412 181.27 146.203 182.084C147.038 182.463 147.917 182.585 149.862 182.589L152.422 182.595V184.172V185.75L149.205 185.744C146.539 185.739 145.787 185.646 144.807 185.203C143.351 184.542 142.309 183.577 141.567 182.2C141.032 181.208 141 180.8 141 174.97V168.792L141.728 167.552C143.348 164.793 144.959 164.191 150.727 164.191H155.005L155.092 159.525C155.173 155.167 155.222 154.774 155.83 153.582Z" fill="white"/>
<path d="M223.165 655L319.329 751.165L223.165 847.329L127 751.165L223.165 655Z" fill="#337CE4"/>
<circle cx="223.165" cy="751.165" r="19.7786" fill="#1A142D"/>
<path d="M331 989.771H223L331 862.871V989.771Z" fill="#1A142D"/>
<path d="M331 1116.67H223L331 989.771V1116.67Z" fill="#E9F2FF"/>
<path d="M223.264 988.285H114L223.264 859.9V988.285Z" fill="#99BDF1"/>
<path d="M223.264 1116.67H114L223.264 988.285V1116.67Z" fill="#337CE4"/>
<rect width="123" height="258" transform="matrix(-1 0 0 1 114 859)" fill="#1A142D"/>
<path d="M113.47 988.279C113.47 1005.18 110.302 1021.92 104.147 1037.54C97.9927 1053.16 88.9716 1067.35 77.5993 1079.3C66.2269 1091.25 52.7259 1100.73 37.8672 1107.2C23.0085 1113.67 7.08297 1117 -9 1117L-8.99999 988.279H113.47Z" fill="#E9F2FF"/>
<path d="M114 988.279C114 971.301 110.819 954.491 104.637 938.806C98.4559 923.121 89.3957 908.869 77.9741 896.865C66.5525 884.86 52.9931 875.338 38.0701 868.841C23.147 862.344 7.15259 859 -9 859L-8.99999 988.279H114Z" fill="#337CE4"/>
<path d="M40.257 806.018L110.316 751.974V860.061L40.257 806.018Z" fill="#1A142D"/>
<path d="M-46.928 806.018L23.1314 751.974V860.061L-46.928 806.018Z" fill="#99BDF1"/>
<path d="M42.748 694.314L110.939 641.892V746.737L42.748 694.314Z" fill="#337CE4"/>
<path d="M-45.6825 693.69L23.4428 640.728V746.653L-45.6825 693.69Z" fill="#14B4B5"/>
</g>
<defs>
<clipPath id="clip0_16_180">
<rect width="331" height="1117" fill="white"/>
</clipPath>
</defs>
</svg>
