<svg width="50" height="50" viewBox="0 0 50 50" fill="none" xmlns="http://www.w3.org/2000/svg">
<path d="M14.8298 3.58204C15.5643 2.14236 16.577 1.18854 18.1175 0.485266C19.0252 0.0709262 19.9119 0.00519951 24.6514 0.000204295C30.9056 -0.00636835 31.6568 0.137178 33.4 1.6736C35.4941 3.51946 35.5663 3.85362 35.5728 11.7466C35.5763 15.8689 35.4602 19.1942 35.2835 20.0281C34.6845 22.8536 33.1236 24.9568 30.9082 25.9225C30.2479 26.2101 28.5789 26.4223 25.7348 26.5795C19.9713 26.8984 19.1959 27.1905 18.1451 29.4399C17.6349 30.5317 17.5866 31.1498 17.5168 37.4585C17.4448 43.9736 17.4669 44.3348 17.982 45.1643C18.8635 46.5829 19.7476 46.7917 24.8704 46.7912C29.8682 46.7909 30.6777 46.5956 31.7527 45.1301C32.2403 44.4655 32.3051 43.9481 32.3792 40.1257L32.4616 35.8624L30.5934 35.5417C26.815 34.8928 24.576 33.1177 23.6436 30.0314C23.4716 29.4622 23.5265 29.4399 25.0985 29.4399C26.6727 29.4399 26.7638 29.4772 27.6095 30.4665C29.0364 32.1355 30.0651 32.3631 36.8915 32.5206C43.4876 32.6731 44.4911 32.5303 45.7002 31.2679L46.4754 30.4581L46.5557 25.2776C46.6342 20.2182 46.6219 20.0754 46.0227 19.1855C45.1113 17.831 44.468 17.6173 41.2896 17.6131L38.4669 17.6091V15.8739V14.1385L41.8147 14.2392C45.5432 14.3515 46.5334 14.6827 48.087 16.3372C49.7376 18.095 49.8668 18.6032 49.9742 23.7551C50.0282 26.34 49.9946 29.0779 49.8996 29.8392C49.6554 31.7953 48.3803 33.8181 46.7597 34.82C45.4697 35.6177 45.4655 35.6182 40.5893 35.7496L35.7099 35.8811V40.3505C35.7099 44.7237 35.6939 44.8525 34.9673 46.3337C34.1938 47.9114 33.185 48.8679 31.5912 49.5346C30.2303 50.104 19.5585 50.1724 18.2422 49.6203C16.9246 49.0677 15.7173 47.9658 14.8957 46.5669L14.1789 45.3457V38.1158C14.1789 31.3712 14.2183 30.761 14.7642 29.0232C15.5013 26.6767 16.891 25.0202 18.8296 24.177C20.0017 23.6673 20.8732 23.5448 24.4193 23.3909C31.8191 23.0699 32.156 22.644 32.3634 13.3485C32.5196 6.35569 32.4072 5.44236 31.2488 4.28242L30.3797 3.4122H24.9667H19.554L18.5731 4.3116L17.5924 5.211L17.5097 9.68592L17.427 14.1611L18.4287 14.3291C22.3843 14.9929 24.3058 16.1145 25.4956 18.4549C26.4658 20.3631 26.397 20.5011 24.476 20.5011C22.9318 20.5011 22.7968 20.4519 22.3738 19.7352C22.1254 19.3138 21.3613 18.6928 20.6763 18.355C19.4803 17.765 19.1492 17.7372 12.3947 17.6557L5.35939 17.5707L4.32064 18.6105L3.28217 19.6506V24.8212C3.28217 30.7776 3.4124 31.2697 5.20315 32.0839C6.03787 32.4633 6.91696 32.5845 8.86183 32.589L11.4219 32.5948V34.1722V35.7496L8.20539 35.7439C5.53949 35.7391 4.7867 35.6463 3.8073 35.2025C2.35055 34.5424 1.30868 33.577 0.566647 32.2004C0.0320493 31.2082 0 30.7999 0 24.9705V18.7922L0.727857 17.5523C2.34793 14.7929 3.95855 14.1913 9.72701 14.1913H14.0051L14.092 9.52476C14.1732 5.16736 14.222 4.77353 14.8298 3.58204Z" fill="url(#paint0_linear_190_895)"/>
<defs>
<linearGradient id="paint0_linear_190_895" x1="21.5" y1="-7.5" x2="1.0848e-06" y2="52.5" gradientUnits="userSpaceOnUse">
<stop offset="0.136877" stop-color="#16B4B7"/>
<stop offset="1" stop-color="#005BDD"/>
</linearGradient>
</defs>
</svg>
