<svg width="14" height="13" viewBox="0 0 14 13" fill="none" xmlns="http://www.w3.org/2000/svg">
<path d="M7 7C8.65685 7 10 5.65685 10 4C10 2.34315 8.65685 1 7 1C5.34315 1 4 2.34315 4 4C4 5.65685 5.34315 7 7 7ZM7 7C7.78793 7 8.56815 7.15519 9.2961 7.45672C10.0241 7.75825 10.6855 8.20021 11.2426 8.75736C11.7998 9.31451 12.2417 9.97594 12.5433 10.7039C12.8448 11.4319 13 12.2121 13 13M7 7C6.21207 7 5.43185 7.15519 4.7039 7.45672C3.97595 7.75825 3.31451 8.20021 2.75736 8.75736C2.20021 9.31451 1.75825 9.97594 1.45672 10.7039C1.15519 11.4319 1 12.2121 1 13" stroke="#1A142D" stroke-width="1.5"/>
</svg>
